<mxfile host="app.diagrams.net" modified="2024-06-18T12:06:58.909Z" agent="Mozilla/5.0 (Windows NT 10.0; Win64; x64) AppleWebKit/537.36 (KHTML, like Gecko) Chrome/121.0.0.0 Safari/537.36" etag="8kOlf91YRI3lvbm1TZtt" version="24.5.5" type="device">
  <diagram name="Página-1" id="6uOdZpoUbsCo77Nom0O0">
    <mxGraphModel dx="1062" dy="1741" grid="1" gridSize="10" guides="1" tooltips="1" connect="1" arrows="1" fold="1" page="1" pageScale="1" pageWidth="827" pageHeight="1169" math="0" shadow="0">
      <root>
        <mxCell id="0" />
        <mxCell id="1" parent="0" />
        <mxCell id="aazOKjjjrh3YJ5J5lnb6-4" value="" style="edgeStyle=orthogonalEdgeStyle;rounded=0;orthogonalLoop=1;jettySize=auto;html=1;" parent="1" source="aazOKjjjrh3YJ5J5lnb6-2" target="aazOKjjjrh3YJ5J5lnb6-3" edge="1">
          <mxGeometry relative="1" as="geometry" />
        </mxCell>
        <mxCell id="aazOKjjjrh3YJ5J5lnb6-2" value="Inicio" style="ellipse;whiteSpace=wrap;html=1;" parent="1" vertex="1">
          <mxGeometry x="60" y="20" width="120" height="80" as="geometry" />
        </mxCell>
        <mxCell id="aazOKjjjrh3YJ5J5lnb6-6" value="" style="edgeStyle=orthogonalEdgeStyle;rounded=0;orthogonalLoop=1;jettySize=auto;html=1;" parent="1" source="aazOKjjjrh3YJ5J5lnb6-3" target="aazOKjjjrh3YJ5J5lnb6-5" edge="1">
          <mxGeometry relative="1" as="geometry" />
        </mxCell>
        <mxCell id="aazOKjjjrh3YJ5J5lnb6-3" value="Receber pedido" style="rounded=0;whiteSpace=wrap;html=1;" parent="1" vertex="1">
          <mxGeometry x="60" y="140" width="120" height="60" as="geometry" />
        </mxCell>
        <mxCell id="aazOKjjjrh3YJ5J5lnb6-8" value="" style="edgeStyle=orthogonalEdgeStyle;rounded=0;orthogonalLoop=1;jettySize=auto;html=1;" parent="1" source="aazOKjjjrh3YJ5J5lnb6-5" target="aazOKjjjrh3YJ5J5lnb6-7" edge="1">
          <mxGeometry relative="1" as="geometry" />
        </mxCell>
        <mxCell id="aazOKjjjrh3YJ5J5lnb6-11" value="" style="edgeStyle=orthogonalEdgeStyle;rounded=0;orthogonalLoop=1;jettySize=auto;html=1;" parent="1" source="aazOKjjjrh3YJ5J5lnb6-5" target="aazOKjjjrh3YJ5J5lnb6-9" edge="1">
          <mxGeometry relative="1" as="geometry" />
        </mxCell>
        <mxCell id="aazOKjjjrh3YJ5J5lnb6-5" value="Arte aprovada?" style="rhombus;whiteSpace=wrap;html=1;" parent="1" vertex="1">
          <mxGeometry x="75" y="270" width="90" height="90" as="geometry" />
        </mxCell>
        <mxCell id="aazOKjjjrh3YJ5J5lnb6-7" value="Solucionar problema" style="rounded=0;whiteSpace=wrap;html=1;" parent="1" vertex="1">
          <mxGeometry x="210" y="285" width="120" height="60" as="geometry" />
        </mxCell>
        <mxCell id="aazOKjjjrh3YJ5J5lnb6-12" value="" style="edgeStyle=orthogonalEdgeStyle;rounded=0;orthogonalLoop=1;jettySize=auto;html=1;" parent="1" source="aazOKjjjrh3YJ5J5lnb6-9" target="aazOKjjjrh3YJ5J5lnb6-10" edge="1">
          <mxGeometry relative="1" as="geometry" />
        </mxCell>
        <mxCell id="aazOKjjjrh3YJ5J5lnb6-9" value="Começar a fazer o pedido" style="rounded=0;whiteSpace=wrap;html=1;" parent="1" vertex="1">
          <mxGeometry x="60" y="400" width="120" height="60" as="geometry" />
        </mxCell>
        <mxCell id="aazOKjjjrh3YJ5J5lnb6-14" value="" style="edgeStyle=orthogonalEdgeStyle;rounded=0;orthogonalLoop=1;jettySize=auto;html=1;" parent="1" source="aazOKjjjrh3YJ5J5lnb6-10" target="aazOKjjjrh3YJ5J5lnb6-13" edge="1">
          <mxGeometry relative="1" as="geometry" />
        </mxCell>
        <mxCell id="aazOKjjjrh3YJ5J5lnb6-10" value="Separar por marcas" style="rounded=0;whiteSpace=wrap;html=1;" parent="1" vertex="1">
          <mxGeometry x="60" y="510" width="120" height="60" as="geometry" />
        </mxCell>
        <mxCell id="aazOKjjjrh3YJ5J5lnb6-18" value="" style="edgeStyle=orthogonalEdgeStyle;rounded=0;orthogonalLoop=1;jettySize=auto;html=1;" parent="1" source="aazOKjjjrh3YJ5J5lnb6-13" target="aazOKjjjrh3YJ5J5lnb6-17" edge="1">
          <mxGeometry relative="1" as="geometry" />
        </mxCell>
        <mxCell id="aS5zfMRw9QFlicnrF5Rj-4" value="" style="edgeStyle=orthogonalEdgeStyle;rounded=0;orthogonalLoop=1;jettySize=auto;html=1;" parent="1" source="aazOKjjjrh3YJ5J5lnb6-13" target="aazOKjjjrh3YJ5J5lnb6-19" edge="1">
          <mxGeometry relative="1" as="geometry" />
        </mxCell>
        <mxCell id="aazOKjjjrh3YJ5J5lnb6-13" value="Identificar se o produto esta do lado certo?" style="rhombus;whiteSpace=wrap;html=1;rounded=0;" parent="1" vertex="1">
          <mxGeometry x="62.5" y="620" width="115" height="100" as="geometry" />
        </mxCell>
        <mxCell id="aazOKjjjrh3YJ5J5lnb6-17" value="colocar do lado certo" style="whiteSpace=wrap;html=1;rounded=0;" parent="1" vertex="1">
          <mxGeometry x="255" y="640" width="120" height="60" as="geometry" />
        </mxCell>
        <mxCell id="aazOKjjjrh3YJ5J5lnb6-23" value="" style="edgeStyle=orthogonalEdgeStyle;rounded=0;orthogonalLoop=1;jettySize=auto;html=1;" parent="1" source="aazOKjjjrh3YJ5J5lnb6-19" target="aazOKjjjrh3YJ5J5lnb6-22" edge="1">
          <mxGeometry relative="1" as="geometry" />
        </mxCell>
        <mxCell id="aazOKjjjrh3YJ5J5lnb6-19" value="Pegar os materiais necessarios" style="rounded=0;whiteSpace=wrap;html=1;" parent="1" vertex="1">
          <mxGeometry x="62.5" y="760" width="120" height="60" as="geometry" />
        </mxCell>
        <mxCell id="aazOKjjjrh3YJ5J5lnb6-21" value="" style="endArrow=classic;html=1;rounded=0;exitX=0.458;exitY=1;exitDx=0;exitDy=0;exitPerimeter=0;entryX=0.979;entryY=0.5;entryDx=0;entryDy=0;entryPerimeter=0;" parent="1" source="aazOKjjjrh3YJ5J5lnb6-17" target="aazOKjjjrh3YJ5J5lnb6-19" edge="1">
          <mxGeometry width="50" height="50" relative="1" as="geometry">
            <mxPoint x="320" y="720" as="sourcePoint" />
            <mxPoint x="190" y="790" as="targetPoint" />
            <Array as="points">
              <mxPoint x="310" y="720" />
              <mxPoint x="310" y="790" />
            </Array>
          </mxGeometry>
        </mxCell>
        <mxCell id="aazOKjjjrh3YJ5J5lnb6-25" value="" style="edgeStyle=orthogonalEdgeStyle;rounded=0;orthogonalLoop=1;jettySize=auto;html=1;" parent="1" source="aazOKjjjrh3YJ5J5lnb6-22" target="aazOKjjjrh3YJ5J5lnb6-24" edge="1">
          <mxGeometry relative="1" as="geometry" />
        </mxCell>
        <mxCell id="aazOKjjjrh3YJ5J5lnb6-22" value="executar o pedido" style="whiteSpace=wrap;html=1;rounded=0;" parent="1" vertex="1">
          <mxGeometry x="62.5" y="870" width="120" height="60" as="geometry" />
        </mxCell>
        <mxCell id="aS5zfMRw9QFlicnrF5Rj-8" value="" style="edgeStyle=orthogonalEdgeStyle;rounded=0;orthogonalLoop=1;jettySize=auto;html=1;" parent="1" source="aazOKjjjrh3YJ5J5lnb6-24" target="aS5zfMRw9QFlicnrF5Rj-6" edge="1">
          <mxGeometry relative="1" as="geometry" />
        </mxCell>
        <mxCell id="aS5zfMRw9QFlicnrF5Rj-9" value="" style="edgeStyle=orthogonalEdgeStyle;rounded=0;orthogonalLoop=1;jettySize=auto;html=1;" parent="1" source="aazOKjjjrh3YJ5J5lnb6-24" target="aS5zfMRw9QFlicnrF5Rj-7" edge="1">
          <mxGeometry relative="1" as="geometry" />
        </mxCell>
        <mxCell id="aazOKjjjrh3YJ5J5lnb6-24" value="Verificar se está tudo certo?" style="rhombus;whiteSpace=wrap;html=1;rounded=0;" parent="1" vertex="1">
          <mxGeometry x="77.5" y="970" width="90" height="100" as="geometry" />
        </mxCell>
        <mxCell id="aS5zfMRw9QFlicnrF5Rj-1" value="Não" style="text;html=1;align=center;verticalAlign=middle;whiteSpace=wrap;rounded=0;" parent="1" vertex="1">
          <mxGeometry x="182.5" y="620" width="60" height="30" as="geometry" />
        </mxCell>
        <mxCell id="aS5zfMRw9QFlicnrF5Rj-2" value="Sim" style="text;html=1;align=center;verticalAlign=middle;whiteSpace=wrap;rounded=0;" parent="1" vertex="1">
          <mxGeometry x="130" y="720" width="60" height="30" as="geometry" />
        </mxCell>
        <mxCell id="aS5zfMRw9QFlicnrF5Rj-6" value="Solucionar problema" style="rounded=0;whiteSpace=wrap;html=1;" parent="1" vertex="1">
          <mxGeometry x="210" y="990" width="120" height="60" as="geometry" />
        </mxCell>
        <mxCell id="aS5zfMRw9QFlicnrF5Rj-13" value="" style="edgeStyle=orthogonalEdgeStyle;rounded=0;orthogonalLoop=1;jettySize=auto;html=1;" parent="1" source="aS5zfMRw9QFlicnrF5Rj-7" target="aS5zfMRw9QFlicnrF5Rj-12" edge="1">
          <mxGeometry relative="1" as="geometry" />
        </mxCell>
        <mxCell id="aS5zfMRw9QFlicnrF5Rj-7" value="informar o cliente" style="rounded=0;whiteSpace=wrap;html=1;" parent="1" vertex="1">
          <mxGeometry x="62.5" y="1120" width="120" height="60" as="geometry" />
        </mxCell>
        <mxCell id="aS5zfMRw9QFlicnrF5Rj-10" value="sim" style="text;html=1;align=center;verticalAlign=middle;whiteSpace=wrap;rounded=0;" parent="1" vertex="1">
          <mxGeometry x="130" y="1060" width="60" height="30" as="geometry" />
        </mxCell>
        <mxCell id="aS5zfMRw9QFlicnrF5Rj-11" value="Não" style="text;html=1;align=center;verticalAlign=middle;whiteSpace=wrap;rounded=0;" parent="1" vertex="1">
          <mxGeometry x="160" y="970" width="60" height="30" as="geometry" />
        </mxCell>
        <mxCell id="aS5zfMRw9QFlicnrF5Rj-12" value="Fim" style="ellipse;whiteSpace=wrap;html=1;" parent="1" vertex="1">
          <mxGeometry x="62.5" y="1240" width="120" height="80" as="geometry" />
        </mxCell>
        <mxCell id="aS5zfMRw9QFlicnrF5Rj-14" value="Recebimento do pedido" style="text;html=1;align=center;verticalAlign=middle;whiteSpace=wrap;rounded=0;" parent="1" vertex="1">
          <mxGeometry x="72.5" y="-100" width="110" height="50" as="geometry" />
        </mxCell>
        <mxCell id="aS5zfMRw9QFlicnrF5Rj-15" value="Costura" style="text;html=1;align=center;verticalAlign=middle;whiteSpace=wrap;rounded=0;" parent="1" vertex="1">
          <mxGeometry x="660" y="-100" width="60" height="30" as="geometry" />
        </mxCell>
        <mxCell id="aS5zfMRw9QFlicnrF5Rj-20" value="" style="edgeStyle=orthogonalEdgeStyle;rounded=0;orthogonalLoop=1;jettySize=auto;html=1;" parent="1" source="aS5zfMRw9QFlicnrF5Rj-17" target="aS5zfMRw9QFlicnrF5Rj-18" edge="1">
          <mxGeometry relative="1" as="geometry" />
        </mxCell>
        <mxCell id="aS5zfMRw9QFlicnrF5Rj-17" value="Inicio" style="ellipse;whiteSpace=wrap;html=1;" parent="1" vertex="1">
          <mxGeometry x="640" y="10" width="120" height="80" as="geometry" />
        </mxCell>
        <mxCell id="aS5zfMRw9QFlicnrF5Rj-21" value="" style="edgeStyle=orthogonalEdgeStyle;rounded=0;orthogonalLoop=1;jettySize=auto;html=1;" parent="1" source="aS5zfMRw9QFlicnrF5Rj-18" target="aS5zfMRw9QFlicnrF5Rj-19" edge="1">
          <mxGeometry relative="1" as="geometry" />
        </mxCell>
        <mxCell id="aS5zfMRw9QFlicnrF5Rj-18" value="Corte dos tecidos" style="rounded=0;whiteSpace=wrap;html=1;" parent="1" vertex="1">
          <mxGeometry x="640" y="150" width="120" height="60" as="geometry" />
        </mxCell>
        <mxCell id="aS5zfMRw9QFlicnrF5Rj-29" style="edgeStyle=orthogonalEdgeStyle;rounded=0;orthogonalLoop=1;jettySize=auto;html=1;entryX=0.5;entryY=0;entryDx=0;entryDy=0;" parent="1" source="aS5zfMRw9QFlicnrF5Rj-19" target="aS5zfMRw9QFlicnrF5Rj-22" edge="1">
          <mxGeometry relative="1" as="geometry" />
        </mxCell>
        <mxCell id="aS5zfMRw9QFlicnrF5Rj-30" style="edgeStyle=orthogonalEdgeStyle;rounded=0;orthogonalLoop=1;jettySize=auto;html=1;" parent="1" source="aS5zfMRw9QFlicnrF5Rj-19" target="aS5zfMRw9QFlicnrF5Rj-25" edge="1">
          <mxGeometry relative="1" as="geometry" />
        </mxCell>
        <mxCell id="aS5zfMRw9QFlicnrF5Rj-31" style="edgeStyle=orthogonalEdgeStyle;rounded=0;orthogonalLoop=1;jettySize=auto;html=1;entryX=0.5;entryY=0;entryDx=0;entryDy=0;" parent="1" source="aS5zfMRw9QFlicnrF5Rj-19" target="aS5zfMRw9QFlicnrF5Rj-26" edge="1">
          <mxGeometry relative="1" as="geometry" />
        </mxCell>
        <mxCell id="aS5zfMRw9QFlicnrF5Rj-19" value="escolher modelos" style="rounded=0;whiteSpace=wrap;html=1;" parent="1" vertex="1">
          <mxGeometry x="640" y="270" width="120" height="60" as="geometry" />
        </mxCell>
        <mxCell id="aS5zfMRw9QFlicnrF5Rj-22" value="Costuras dos bolsos" style="rounded=0;whiteSpace=wrap;html=1;" parent="1" vertex="1">
          <mxGeometry x="500" y="390" width="120" height="60" as="geometry" />
        </mxCell>
        <mxCell id="aS5zfMRw9QFlicnrF5Rj-23" value="Costura do gancho&lt;div&gt;Frontal e traseiro&lt;/div&gt;" style="rounded=0;whiteSpace=wrap;html=1;" parent="1" vertex="1">
          <mxGeometry x="640" y="390" width="120" height="60" as="geometry" />
        </mxCell>
        <mxCell id="aS5zfMRw9QFlicnrF5Rj-25" value="Costura do passador" style="rounded=0;whiteSpace=wrap;html=1;" parent="1" vertex="1">
          <mxGeometry x="780" y="390" width="120" height="60" as="geometry" />
        </mxCell>
        <mxCell id="aS5zfMRw9QFlicnrF5Rj-26" value="Costura das bocas" style="rounded=0;whiteSpace=wrap;html=1;" parent="1" vertex="1">
          <mxGeometry x="920" y="390" width="120" height="60" as="geometry" />
        </mxCell>
        <mxCell id="aS5zfMRw9QFlicnrF5Rj-27" value="" style="endArrow=classic;html=1;rounded=0;exitX=0.25;exitY=1;exitDx=0;exitDy=0;entryX=0.25;entryY=0;entryDx=0;entryDy=0;" parent="1" source="aS5zfMRw9QFlicnrF5Rj-19" target="aS5zfMRw9QFlicnrF5Rj-23" edge="1">
          <mxGeometry width="50" height="50" relative="1" as="geometry">
            <mxPoint x="650" y="390" as="sourcePoint" />
            <mxPoint x="700" y="340" as="targetPoint" />
            <Array as="points">
              <mxPoint x="670" y="370" />
            </Array>
          </mxGeometry>
        </mxCell>
        <mxCell id="aS5zfMRw9QFlicnrF5Rj-42" value="" style="edgeStyle=orthogonalEdgeStyle;rounded=0;orthogonalLoop=1;jettySize=auto;html=1;" parent="1" source="aS5zfMRw9QFlicnrF5Rj-32" target="aS5zfMRw9QFlicnrF5Rj-34" edge="1">
          <mxGeometry relative="1" as="geometry" />
        </mxCell>
        <mxCell id="aS5zfMRw9QFlicnrF5Rj-43" value="" style="edgeStyle=orthogonalEdgeStyle;rounded=0;orthogonalLoop=1;jettySize=auto;html=1;" parent="1" source="aS5zfMRw9QFlicnrF5Rj-32" target="aS5zfMRw9QFlicnrF5Rj-33" edge="1">
          <mxGeometry relative="1" as="geometry" />
        </mxCell>
        <mxCell id="aS5zfMRw9QFlicnrF5Rj-32" value="Peças de&lt;div&gt;especificação&lt;/div&gt;" style="rhombus;whiteSpace=wrap;html=1;" parent="1" vertex="1">
          <mxGeometry x="700" y="500" width="120" height="100" as="geometry" />
        </mxCell>
        <mxCell id="aS5zfMRw9QFlicnrF5Rj-33" value="Desmanchar e refazer" style="rounded=0;whiteSpace=wrap;html=1;" parent="1" vertex="1">
          <mxGeometry x="550" y="520" width="120" height="60" as="geometry" />
        </mxCell>
        <mxCell id="aS5zfMRw9QFlicnrF5Rj-47" value="" style="edgeStyle=orthogonalEdgeStyle;rounded=0;orthogonalLoop=1;jettySize=auto;html=1;" parent="1" source="aS5zfMRw9QFlicnrF5Rj-34" target="aS5zfMRw9QFlicnrF5Rj-46" edge="1">
          <mxGeometry relative="1" as="geometry" />
        </mxCell>
        <mxCell id="aS5zfMRw9QFlicnrF5Rj-34" value="Junção de todas as pastas" style="rounded=0;whiteSpace=wrap;html=1;" parent="1" vertex="1">
          <mxGeometry x="900" y="520" width="120" height="60" as="geometry" />
        </mxCell>
        <mxCell id="aS5zfMRw9QFlicnrF5Rj-52" value="" style="edgeStyle=orthogonalEdgeStyle;rounded=0;orthogonalLoop=1;jettySize=auto;html=1;" parent="1" source="aS5zfMRw9QFlicnrF5Rj-35" target="aS5zfMRw9QFlicnrF5Rj-40" edge="1">
          <mxGeometry relative="1" as="geometry" />
        </mxCell>
        <mxCell id="aS5zfMRw9QFlicnrF5Rj-35" value="Estocar" style="rounded=0;whiteSpace=wrap;html=1;" parent="1" vertex="1">
          <mxGeometry x="470" y="670" width="120" height="60" as="geometry" />
        </mxCell>
        <mxCell id="aS5zfMRw9QFlicnrF5Rj-51" value="" style="edgeStyle=orthogonalEdgeStyle;rounded=0;orthogonalLoop=1;jettySize=auto;html=1;" parent="1" source="aS5zfMRw9QFlicnrF5Rj-36" target="aS5zfMRw9QFlicnrF5Rj-35" edge="1">
          <mxGeometry relative="1" as="geometry" />
        </mxCell>
        <mxCell id="aS5zfMRw9QFlicnrF5Rj-36" value="Dobrar e embalar" style="rounded=0;whiteSpace=wrap;html=1;" parent="1" vertex="1">
          <mxGeometry x="630" y="670" width="120" height="60" as="geometry" />
        </mxCell>
        <mxCell id="aS5zfMRw9QFlicnrF5Rj-50" value="" style="edgeStyle=orthogonalEdgeStyle;rounded=0;orthogonalLoop=1;jettySize=auto;html=1;" parent="1" source="aS5zfMRw9QFlicnrF5Rj-37" target="aS5zfMRw9QFlicnrF5Rj-36" edge="1">
          <mxGeometry relative="1" as="geometry" />
        </mxCell>
        <mxCell id="aS5zfMRw9QFlicnrF5Rj-37" value="Passar" style="rounded=0;whiteSpace=wrap;html=1;" parent="1" vertex="1">
          <mxGeometry x="790" y="670" width="120" height="60" as="geometry" />
        </mxCell>
        <mxCell id="aS5zfMRw9QFlicnrF5Rj-49" value="" style="edgeStyle=orthogonalEdgeStyle;rounded=0;orthogonalLoop=1;jettySize=auto;html=1;" parent="1" source="aS5zfMRw9QFlicnrF5Rj-38" target="aS5zfMRw9QFlicnrF5Rj-37" edge="1">
          <mxGeometry relative="1" as="geometry" />
        </mxCell>
        <mxCell id="aS5zfMRw9QFlicnrF5Rj-38" value="Expedição" style="rounded=0;whiteSpace=wrap;html=1;" parent="1" vertex="1">
          <mxGeometry x="940" y="670" width="120" height="60" as="geometry" />
        </mxCell>
        <mxCell id="aS5zfMRw9QFlicnrF5Rj-53" value="" style="edgeStyle=orthogonalEdgeStyle;rounded=0;orthogonalLoop=1;jettySize=auto;html=1;" parent="1" source="aS5zfMRw9QFlicnrF5Rj-40" target="aS5zfMRw9QFlicnrF5Rj-41" edge="1">
          <mxGeometry relative="1" as="geometry" />
        </mxCell>
        <mxCell id="aS5zfMRw9QFlicnrF5Rj-40" value="Expedição" style="rounded=0;whiteSpace=wrap;html=1;" parent="1" vertex="1">
          <mxGeometry x="470" y="780" width="120" height="60" as="geometry" />
        </mxCell>
        <mxCell id="aS5zfMRw9QFlicnrF5Rj-41" value="Fim" style="ellipse;whiteSpace=wrap;html=1;" parent="1" vertex="1">
          <mxGeometry x="650" y="770" width="120" height="80" as="geometry" />
        </mxCell>
        <mxCell id="aS5zfMRw9QFlicnrF5Rj-44" value="Sim" style="text;html=1;align=center;verticalAlign=middle;whiteSpace=wrap;rounded=0;" parent="1" vertex="1">
          <mxGeometry x="820" y="510" width="60" height="30" as="geometry" />
        </mxCell>
        <mxCell id="aS5zfMRw9QFlicnrF5Rj-45" value="Não" style="text;html=1;align=center;verticalAlign=middle;whiteSpace=wrap;rounded=0;" parent="1" vertex="1">
          <mxGeometry x="660" y="510" width="60" height="30" as="geometry" />
        </mxCell>
        <mxCell id="aS5zfMRw9QFlicnrF5Rj-48" value="" style="edgeStyle=orthogonalEdgeStyle;rounded=0;orthogonalLoop=1;jettySize=auto;html=1;" parent="1" source="aS5zfMRw9QFlicnrF5Rj-46" target="aS5zfMRw9QFlicnrF5Rj-38" edge="1">
          <mxGeometry relative="1" as="geometry" />
        </mxCell>
        <mxCell id="aS5zfMRw9QFlicnrF5Rj-46" value="colocar expedições" style="whiteSpace=wrap;html=1;rounded=0;" parent="1" vertex="1">
          <mxGeometry x="1090" y="670" width="120" height="60" as="geometry" />
        </mxCell>
        <mxCell id="aS5zfMRw9QFlicnrF5Rj-54" value="" style="endArrow=classic;html=1;rounded=0;exitX=-0.008;exitY=0.367;exitDx=0;exitDy=0;exitPerimeter=0;entryX=0;entryY=0.5;entryDx=0;entryDy=0;" parent="1" source="aS5zfMRw9QFlicnrF5Rj-33" target="aS5zfMRw9QFlicnrF5Rj-18" edge="1">
          <mxGeometry width="50" height="50" relative="1" as="geometry">
            <mxPoint x="540" y="540" as="sourcePoint" />
            <mxPoint x="430" y="170" as="targetPoint" />
            <Array as="points">
              <mxPoint x="420" y="540" />
              <mxPoint x="420" y="180" />
            </Array>
          </mxGeometry>
        </mxCell>
        <mxCell id="aS5zfMRw9QFlicnrF5Rj-60" value="" style="edgeStyle=orthogonalEdgeStyle;rounded=0;orthogonalLoop=1;jettySize=auto;html=1;" parent="1" source="aS5zfMRw9QFlicnrF5Rj-55" target="aS5zfMRw9QFlicnrF5Rj-56" edge="1">
          <mxGeometry relative="1" as="geometry" />
        </mxCell>
        <mxCell id="aS5zfMRw9QFlicnrF5Rj-55" value="Entrar" style="ellipse;whiteSpace=wrap;html=1;" parent="1" vertex="1">
          <mxGeometry x="1370" y="10" width="120" height="80" as="geometry" />
        </mxCell>
        <mxCell id="aS5zfMRw9QFlicnrF5Rj-61" value="" style="edgeStyle=orthogonalEdgeStyle;rounded=0;orthogonalLoop=1;jettySize=auto;html=1;" parent="1" source="aS5zfMRw9QFlicnrF5Rj-56" target="aS5zfMRw9QFlicnrF5Rj-57" edge="1">
          <mxGeometry relative="1" as="geometry" />
        </mxCell>
        <mxCell id="aS5zfMRw9QFlicnrF5Rj-56" value="Clicar em criar novo úsuario" style="rounded=0;whiteSpace=wrap;html=1;" parent="1" vertex="1">
          <mxGeometry x="1370" y="130" width="120" height="60" as="geometry" />
        </mxCell>
        <mxCell id="aS5zfMRw9QFlicnrF5Rj-62" value="" style="edgeStyle=orthogonalEdgeStyle;rounded=0;orthogonalLoop=1;jettySize=auto;html=1;" parent="1" source="aS5zfMRw9QFlicnrF5Rj-57" target="aS5zfMRw9QFlicnrF5Rj-58" edge="1">
          <mxGeometry relative="1" as="geometry" />
        </mxCell>
        <mxCell id="aS5zfMRw9QFlicnrF5Rj-57" value="Nome do usuário" style="rounded=0;whiteSpace=wrap;html=1;" parent="1" vertex="1">
          <mxGeometry x="1370" y="250" width="120" height="60" as="geometry" />
        </mxCell>
        <mxCell id="aS5zfMRw9QFlicnrF5Rj-63" value="" style="edgeStyle=orthogonalEdgeStyle;rounded=0;orthogonalLoop=1;jettySize=auto;html=1;" parent="1" source="aS5zfMRw9QFlicnrF5Rj-58" target="aS5zfMRw9QFlicnrF5Rj-59" edge="1">
          <mxGeometry relative="1" as="geometry" />
        </mxCell>
        <mxCell id="aS5zfMRw9QFlicnrF5Rj-58" value="Colocar E-mail" style="rounded=0;whiteSpace=wrap;html=1;" parent="1" vertex="1">
          <mxGeometry x="1370" y="360" width="120" height="60" as="geometry" />
        </mxCell>
        <mxCell id="aS5zfMRw9QFlicnrF5Rj-68" value="" style="edgeStyle=orthogonalEdgeStyle;rounded=0;orthogonalLoop=1;jettySize=auto;html=1;" parent="1" source="aS5zfMRw9QFlicnrF5Rj-59" target="aS5zfMRw9QFlicnrF5Rj-64" edge="1">
          <mxGeometry relative="1" as="geometry" />
        </mxCell>
        <mxCell id="aS5zfMRw9QFlicnrF5Rj-70" value="" style="edgeStyle=orthogonalEdgeStyle;rounded=0;orthogonalLoop=1;jettySize=auto;html=1;" parent="1" source="aS5zfMRw9QFlicnrF5Rj-59" target="aS5zfMRw9QFlicnrF5Rj-66" edge="1">
          <mxGeometry relative="1" as="geometry" />
        </mxCell>
        <mxCell id="aS5zfMRw9QFlicnrF5Rj-59" value="E-mail já encontrado?" style="rhombus;whiteSpace=wrap;html=1;" parent="1" vertex="1">
          <mxGeometry x="1375" y="470" width="110" height="100" as="geometry" />
        </mxCell>
        <mxCell id="aS5zfMRw9QFlicnrF5Rj-69" value="" style="edgeStyle=orthogonalEdgeStyle;rounded=0;orthogonalLoop=1;jettySize=auto;html=1;" parent="1" source="aS5zfMRw9QFlicnrF5Rj-64" target="aS5zfMRw9QFlicnrF5Rj-65" edge="1">
          <mxGeometry relative="1" as="geometry" />
        </mxCell>
        <mxCell id="aS5zfMRw9QFlicnrF5Rj-64" value="Locar E-mail" style="rounded=0;whiteSpace=wrap;html=1;" parent="1" vertex="1">
          <mxGeometry x="1550" y="490" width="120" height="60" as="geometry" />
        </mxCell>
        <mxCell id="aS5zfMRw9QFlicnrF5Rj-80" value="" style="edgeStyle=orthogonalEdgeStyle;rounded=0;orthogonalLoop=1;jettySize=auto;html=1;" parent="1" source="aS5zfMRw9QFlicnrF5Rj-65" target="aS5zfMRw9QFlicnrF5Rj-79" edge="1">
          <mxGeometry relative="1" as="geometry" />
        </mxCell>
        <mxCell id="aS5zfMRw9QFlicnrF5Rj-65" value="Senha correta?" style="rhombus;whiteSpace=wrap;html=1;" parent="1" vertex="1">
          <mxGeometry x="1740" y="470" width="120" height="100" as="geometry" />
        </mxCell>
        <mxCell id="aS5zfMRw9QFlicnrF5Rj-76" value="" style="edgeStyle=orthogonalEdgeStyle;rounded=0;orthogonalLoop=1;jettySize=auto;html=1;" parent="1" source="aS5zfMRw9QFlicnrF5Rj-66" target="aS5zfMRw9QFlicnrF5Rj-72" edge="1">
          <mxGeometry relative="1" as="geometry" />
        </mxCell>
        <mxCell id="aS5zfMRw9QFlicnrF5Rj-82" value="" style="edgeStyle=orthogonalEdgeStyle;rounded=0;orthogonalLoop=1;jettySize=auto;html=1;" parent="1" source="aS5zfMRw9QFlicnrF5Rj-66" target="aS5zfMRw9QFlicnrF5Rj-81" edge="1">
          <mxGeometry relative="1" as="geometry" />
        </mxCell>
        <mxCell id="aS5zfMRw9QFlicnrF5Rj-66" value="O Login está correto?" style="rhombus;whiteSpace=wrap;html=1;" parent="1" vertex="1">
          <mxGeometry x="1375" y="615" width="110" height="110" as="geometry" />
        </mxCell>
        <mxCell id="aS5zfMRw9QFlicnrF5Rj-71" value="Não" style="text;html=1;align=center;verticalAlign=middle;whiteSpace=wrap;rounded=0;" parent="1" vertex="1">
          <mxGeometry x="1425" y="570" width="60" height="30" as="geometry" />
        </mxCell>
        <mxCell id="aS5zfMRw9QFlicnrF5Rj-75" value="" style="edgeStyle=orthogonalEdgeStyle;rounded=0;orthogonalLoop=1;jettySize=auto;html=1;" parent="1" source="aS5zfMRw9QFlicnrF5Rj-72" target="aS5zfMRw9QFlicnrF5Rj-73" edge="1">
          <mxGeometry relative="1" as="geometry" />
        </mxCell>
        <mxCell id="aS5zfMRw9QFlicnrF5Rj-72" value="Esqueceu a senha?" style="rounded=0;whiteSpace=wrap;html=1;" parent="1" vertex="1">
          <mxGeometry x="1550" y="690" width="120" height="60" as="geometry" />
        </mxCell>
        <mxCell id="aS5zfMRw9QFlicnrF5Rj-73" value="Criar uma nova senha" style="text;html=1;align=center;verticalAlign=middle;whiteSpace=wrap;rounded=0;" parent="1" vertex="1">
          <mxGeometry x="1580" y="570" width="60" height="30" as="geometry" />
        </mxCell>
        <mxCell id="aS5zfMRw9QFlicnrF5Rj-74" value="" style="endArrow=classic;html=1;rounded=0;exitX=1;exitY=0.5;exitDx=0;exitDy=0;" parent="1" source="aS5zfMRw9QFlicnrF5Rj-71" edge="1">
          <mxGeometry width="50" height="50" relative="1" as="geometry">
            <mxPoint x="1510" y="635" as="sourcePoint" />
            <mxPoint x="1560" y="585" as="targetPoint" />
          </mxGeometry>
        </mxCell>
        <mxCell id="aS5zfMRw9QFlicnrF5Rj-77" value="Não" style="text;html=1;align=center;verticalAlign=middle;whiteSpace=wrap;rounded=0;" parent="1" vertex="1">
          <mxGeometry x="1485" y="630" width="60" height="30" as="geometry" />
        </mxCell>
        <mxCell id="aS5zfMRw9QFlicnrF5Rj-78" value="" style="endArrow=classic;html=1;rounded=0;entryX=0.5;entryY=1;entryDx=0;entryDy=0;exitX=1;exitY=0.667;exitDx=0;exitDy=0;exitPerimeter=0;" parent="1" source="aS5zfMRw9QFlicnrF5Rj-72" target="aS5zfMRw9QFlicnrF5Rj-65" edge="1">
          <mxGeometry width="50" height="50" relative="1" as="geometry">
            <mxPoint x="1700" y="680" as="sourcePoint" />
            <mxPoint x="1790" y="630" as="targetPoint" />
            <Array as="points">
              <mxPoint x="1800" y="730" />
            </Array>
          </mxGeometry>
        </mxCell>
        <mxCell id="aS5zfMRw9QFlicnrF5Rj-79" value="Sim" style="text;html=1;align=center;verticalAlign=middle;whiteSpace=wrap;rounded=0;" parent="1" vertex="1">
          <mxGeometry x="1890" y="500" width="60" height="30" as="geometry" />
        </mxCell>
        <mxCell id="aS5zfMRw9QFlicnrF5Rj-84" value="" style="edgeStyle=orthogonalEdgeStyle;rounded=0;orthogonalLoop=1;jettySize=auto;html=1;" parent="1" source="aS5zfMRw9QFlicnrF5Rj-81" target="aS5zfMRw9QFlicnrF5Rj-83" edge="1">
          <mxGeometry relative="1" as="geometry" />
        </mxCell>
        <mxCell id="aS5zfMRw9QFlicnrF5Rj-81" value="Criar conta" style="rounded=0;whiteSpace=wrap;html=1;" parent="1" vertex="1">
          <mxGeometry x="1370" y="770" width="120" height="60" as="geometry" />
        </mxCell>
        <mxCell id="aS5zfMRw9QFlicnrF5Rj-88" value="" style="edgeStyle=orthogonalEdgeStyle;rounded=0;orthogonalLoop=1;jettySize=auto;html=1;" parent="1" source="aS5zfMRw9QFlicnrF5Rj-83" target="aS5zfMRw9QFlicnrF5Rj-86" edge="1">
          <mxGeometry relative="1" as="geometry" />
        </mxCell>
        <mxCell id="aS5zfMRw9QFlicnrF5Rj-83" value="Enviar E-mail&lt;div&gt;de verificação&lt;/div&gt;" style="rounded=0;whiteSpace=wrap;html=1;" parent="1" vertex="1">
          <mxGeometry x="1370" y="880" width="120" height="60" as="geometry" />
        </mxCell>
        <mxCell id="aS5zfMRw9QFlicnrF5Rj-86" value="Verificação de E-mail" style="rounded=0;whiteSpace=wrap;html=1;" parent="1" vertex="1">
          <mxGeometry x="1520" y="880" width="120" height="60" as="geometry" />
        </mxCell>
        <mxCell id="aS5zfMRw9QFlicnrF5Rj-87" value="" style="endArrow=classic;html=1;rounded=0;exitX=1;exitY=0.5;exitDx=0;exitDy=0;" parent="1" source="aS5zfMRw9QFlicnrF5Rj-86" edge="1">
          <mxGeometry width="50" height="50" relative="1" as="geometry">
            <mxPoint x="1670" y="920" as="sourcePoint" />
            <mxPoint x="1730" y="910" as="targetPoint" />
          </mxGeometry>
        </mxCell>
        <mxCell id="aS5zfMRw9QFlicnrF5Rj-91" value="" style="edgeStyle=orthogonalEdgeStyle;rounded=0;orthogonalLoop=1;jettySize=auto;html=1;" parent="1" source="aS5zfMRw9QFlicnrF5Rj-92" target="aS5zfMRw9QFlicnrF5Rj-90" edge="1">
          <mxGeometry relative="1" as="geometry" />
        </mxCell>
        <mxCell id="aS5zfMRw9QFlicnrF5Rj-89" value="Foi sucedido" style="rhombus;whiteSpace=wrap;html=1;" parent="1" vertex="1">
          <mxGeometry x="1730" y="860" width="110" height="100" as="geometry" />
        </mxCell>
        <mxCell id="aS5zfMRw9QFlicnrF5Rj-99" value="" style="edgeStyle=orthogonalEdgeStyle;rounded=0;orthogonalLoop=1;jettySize=auto;html=1;" parent="1" source="aS5zfMRw9QFlicnrF5Rj-90" target="aS5zfMRw9QFlicnrF5Rj-98" edge="1">
          <mxGeometry relative="1" as="geometry" />
        </mxCell>
        <mxCell id="aS5zfMRw9QFlicnrF5Rj-90" value="Investigar e-mail" style="whiteSpace=wrap;html=1;" parent="1" vertex="1">
          <mxGeometry x="1915" y="880" width="120" height="60" as="geometry" />
        </mxCell>
        <mxCell id="aS5zfMRw9QFlicnrF5Rj-93" value="" style="edgeStyle=orthogonalEdgeStyle;rounded=0;orthogonalLoop=1;jettySize=auto;html=1;" parent="1" source="aS5zfMRw9QFlicnrF5Rj-89" target="aS5zfMRw9QFlicnrF5Rj-92" edge="1">
          <mxGeometry relative="1" as="geometry">
            <mxPoint x="1840" y="910" as="sourcePoint" />
            <mxPoint x="1915" y="910" as="targetPoint" />
          </mxGeometry>
        </mxCell>
        <mxCell id="aS5zfMRw9QFlicnrF5Rj-92" value="Não" style="text;html=1;align=center;verticalAlign=middle;whiteSpace=wrap;rounded=0;" parent="1" vertex="1">
          <mxGeometry x="1850" y="820" width="60" height="30" as="geometry" />
        </mxCell>
        <mxCell id="aS5zfMRw9QFlicnrF5Rj-98" value="fim" style="ellipse;whiteSpace=wrap;html=1;" parent="1" vertex="1">
          <mxGeometry x="1935" y="1010" width="80" height="50" as="geometry" />
        </mxCell>
        <mxCell id="aS5zfMRw9QFlicnrF5Rj-100" value="" style="endArrow=classic;html=1;rounded=0;exitX=0.5;exitY=1;exitDx=0;exitDy=0;" parent="1" source="aS5zfMRw9QFlicnrF5Rj-89" edge="1">
          <mxGeometry width="50" height="50" relative="1" as="geometry">
            <mxPoint x="1770" y="1035" as="sourcePoint" />
            <mxPoint x="1930" y="1040" as="targetPoint" />
            <Array as="points">
              <mxPoint x="1785" y="1040" />
            </Array>
          </mxGeometry>
        </mxCell>
        <mxCell id="GYugjzRYb0nLsBSvSAXp-3" value="" style="edgeStyle=orthogonalEdgeStyle;rounded=0;orthogonalLoop=1;jettySize=auto;html=1;" edge="1" parent="1" source="GYugjzRYb0nLsBSvSAXp-1" target="GYugjzRYb0nLsBSvSAXp-2">
          <mxGeometry relative="1" as="geometry" />
        </mxCell>
        <mxCell id="GYugjzRYb0nLsBSvSAXp-1" value="Inicio" style="ellipse;whiteSpace=wrap;html=1;" vertex="1" parent="1">
          <mxGeometry x="2200" width="120" height="80" as="geometry" />
        </mxCell>
        <mxCell id="GYugjzRYb0nLsBSvSAXp-5" value="" style="edgeStyle=orthogonalEdgeStyle;rounded=0;orthogonalLoop=1;jettySize=auto;html=1;" edge="1" parent="1" source="GYugjzRYb0nLsBSvSAXp-2" target="GYugjzRYb0nLsBSvSAXp-4">
          <mxGeometry relative="1" as="geometry" />
        </mxCell>
        <mxCell id="GYugjzRYb0nLsBSvSAXp-2" value="gerente solicita produto" style="whiteSpace=wrap;html=1;" vertex="1" parent="1">
          <mxGeometry x="2200" y="170" width="120" height="60" as="geometry" />
        </mxCell>
        <mxCell id="GYugjzRYb0nLsBSvSAXp-7" value="" style="edgeStyle=orthogonalEdgeStyle;rounded=0;orthogonalLoop=1;jettySize=auto;html=1;" edge="1" parent="1" source="GYugjzRYb0nLsBSvSAXp-4" target="GYugjzRYb0nLsBSvSAXp-6">
          <mxGeometry relative="1" as="geometry" />
        </mxCell>
        <mxCell id="GYugjzRYb0nLsBSvSAXp-12" value="" style="edgeStyle=orthogonalEdgeStyle;rounded=0;orthogonalLoop=1;jettySize=auto;html=1;" edge="1" parent="1" source="GYugjzRYb0nLsBSvSAXp-4" target="GYugjzRYb0nLsBSvSAXp-11">
          <mxGeometry relative="1" as="geometry" />
        </mxCell>
        <mxCell id="GYugjzRYb0nLsBSvSAXp-4" value="entrou produto?" style="rhombus;whiteSpace=wrap;html=1;" vertex="1" parent="1">
          <mxGeometry x="2220" y="300" width="80" height="80" as="geometry" />
        </mxCell>
        <mxCell id="GYugjzRYb0nLsBSvSAXp-9" value="" style="edgeStyle=orthogonalEdgeStyle;rounded=0;orthogonalLoop=1;jettySize=auto;html=1;" edge="1" parent="1" source="GYugjzRYb0nLsBSvSAXp-6" target="GYugjzRYb0nLsBSvSAXp-8">
          <mxGeometry relative="1" as="geometry" />
        </mxCell>
        <mxCell id="GYugjzRYb0nLsBSvSAXp-6" value="Saída de produtos" style="whiteSpace=wrap;html=1;" vertex="1" parent="1">
          <mxGeometry x="2360" y="310" width="120" height="60" as="geometry" />
        </mxCell>
        <mxCell id="GYugjzRYb0nLsBSvSAXp-14" value="" style="edgeStyle=orthogonalEdgeStyle;rounded=0;orthogonalLoop=1;jettySize=auto;html=1;" edge="1" parent="1" source="GYugjzRYb0nLsBSvSAXp-8" target="GYugjzRYb0nLsBSvSAXp-13">
          <mxGeometry relative="1" as="geometry" />
        </mxCell>
        <mxCell id="GYugjzRYb0nLsBSvSAXp-22" value="" style="edgeStyle=orthogonalEdgeStyle;rounded=0;orthogonalLoop=1;jettySize=auto;html=1;" edge="1" parent="1" source="GYugjzRYb0nLsBSvSAXp-8" target="GYugjzRYb0nLsBSvSAXp-21">
          <mxGeometry relative="1" as="geometry" />
        </mxCell>
        <mxCell id="GYugjzRYb0nLsBSvSAXp-8" value="Dados validas?" style="rhombus;whiteSpace=wrap;html=1;" vertex="1" parent="1">
          <mxGeometry x="2520" y="300" width="80" height="80" as="geometry" />
        </mxCell>
        <mxCell id="GYugjzRYb0nLsBSvSAXp-10" value="Não" style="text;html=1;align=center;verticalAlign=middle;whiteSpace=wrap;rounded=0;" vertex="1" parent="1">
          <mxGeometry x="2300" y="310" width="60" height="30" as="geometry" />
        </mxCell>
        <mxCell id="GYugjzRYb0nLsBSvSAXp-25" value="" style="edgeStyle=orthogonalEdgeStyle;rounded=0;orthogonalLoop=1;jettySize=auto;html=1;" edge="1" parent="1" source="GYugjzRYb0nLsBSvSAXp-11" target="GYugjzRYb0nLsBSvSAXp-24">
          <mxGeometry relative="1" as="geometry" />
        </mxCell>
        <mxCell id="GYugjzRYb0nLsBSvSAXp-11" value="entrada de produtos" style="whiteSpace=wrap;html=1;" vertex="1" parent="1">
          <mxGeometry x="2200" y="440" width="120" height="60" as="geometry" />
        </mxCell>
        <mxCell id="GYugjzRYb0nLsBSvSAXp-18" value="" style="edgeStyle=orthogonalEdgeStyle;rounded=0;orthogonalLoop=1;jettySize=auto;html=1;" edge="1" parent="1" source="GYugjzRYb0nLsBSvSAXp-13" target="GYugjzRYb0nLsBSvSAXp-17">
          <mxGeometry relative="1" as="geometry" />
        </mxCell>
        <mxCell id="GYugjzRYb0nLsBSvSAXp-13" value="mostrar erro" style="whiteSpace=wrap;html=1;" vertex="1" parent="1">
          <mxGeometry x="2660" y="310" width="120" height="60" as="geometry" />
        </mxCell>
        <mxCell id="GYugjzRYb0nLsBSvSAXp-17" value="Solucionar erro" style="whiteSpace=wrap;html=1;" vertex="1" parent="1">
          <mxGeometry x="2860" y="310" width="120" height="60" as="geometry" />
        </mxCell>
        <mxCell id="GYugjzRYb0nLsBSvSAXp-19" value="Não" style="text;html=1;align=center;verticalAlign=middle;whiteSpace=wrap;rounded=0;" vertex="1" parent="1">
          <mxGeometry x="2600" y="310" width="60" height="30" as="geometry" />
        </mxCell>
        <mxCell id="GYugjzRYb0nLsBSvSAXp-20" value="Sim" style="text;html=1;align=center;verticalAlign=middle;whiteSpace=wrap;rounded=0;" vertex="1" parent="1">
          <mxGeometry x="2580" y="360" width="60" height="30" as="geometry" />
        </mxCell>
        <mxCell id="GYugjzRYb0nLsBSvSAXp-21" value="Altera estoque" style="whiteSpace=wrap;html=1;" vertex="1" parent="1">
          <mxGeometry x="2500" y="420" width="120" height="60" as="geometry" />
        </mxCell>
        <mxCell id="GYugjzRYb0nLsBSvSAXp-23" value="Sim" style="text;html=1;align=center;verticalAlign=middle;whiteSpace=wrap;rounded=0;" vertex="1" parent="1">
          <mxGeometry x="2250" y="390" width="60" height="30" as="geometry" />
        </mxCell>
        <mxCell id="GYugjzRYb0nLsBSvSAXp-30" value="" style="edgeStyle=orthogonalEdgeStyle;rounded=0;orthogonalLoop=1;jettySize=auto;html=1;" edge="1" parent="1" source="GYugjzRYb0nLsBSvSAXp-24" target="GYugjzRYb0nLsBSvSAXp-29">
          <mxGeometry relative="1" as="geometry" />
        </mxCell>
        <mxCell id="GYugjzRYb0nLsBSvSAXp-24" value="Dados Validos?" style="rhombus;whiteSpace=wrap;html=1;" vertex="1" parent="1">
          <mxGeometry x="2220" y="570" width="80" height="80" as="geometry" />
        </mxCell>
        <mxCell id="GYugjzRYb0nLsBSvSAXp-32" value="" style="edgeStyle=orthogonalEdgeStyle;rounded=0;orthogonalLoop=1;jettySize=auto;html=1;" edge="1" parent="1" source="GYugjzRYb0nLsBSvSAXp-26" target="GYugjzRYb0nLsBSvSAXp-31">
          <mxGeometry relative="1" as="geometry" />
        </mxCell>
        <mxCell id="GYugjzRYb0nLsBSvSAXp-26" value="Mostrar erro" style="whiteSpace=wrap;html=1;" vertex="1" parent="1">
          <mxGeometry x="2360" y="580" width="120" height="60" as="geometry" />
        </mxCell>
        <mxCell id="GYugjzRYb0nLsBSvSAXp-28" value="" style="endArrow=classic;html=1;rounded=0;entryX=1;entryY=0.75;entryDx=0;entryDy=0;exitX=0.5;exitY=0;exitDx=0;exitDy=0;exitPerimeter=0;" edge="1" parent="1" source="GYugjzRYb0nLsBSvSAXp-26" target="GYugjzRYb0nLsBSvSAXp-11">
          <mxGeometry width="50" height="50" relative="1" as="geometry">
            <mxPoint x="2420" y="570" as="sourcePoint" />
            <mxPoint x="2400" y="440" as="targetPoint" />
            <Array as="points">
              <mxPoint x="2420" y="485" />
            </Array>
          </mxGeometry>
        </mxCell>
        <mxCell id="GYugjzRYb0nLsBSvSAXp-38" value="" style="edgeStyle=orthogonalEdgeStyle;rounded=0;orthogonalLoop=1;jettySize=auto;html=1;" edge="1" parent="1" source="GYugjzRYb0nLsBSvSAXp-29" target="GYugjzRYb0nLsBSvSAXp-37">
          <mxGeometry relative="1" as="geometry" />
        </mxCell>
        <mxCell id="GYugjzRYb0nLsBSvSAXp-29" value="Altera estoque" style="whiteSpace=wrap;html=1;" vertex="1" parent="1">
          <mxGeometry x="2200" y="740" width="120" height="60" as="geometry" />
        </mxCell>
        <mxCell id="GYugjzRYb0nLsBSvSAXp-31" value="Solucionar ero" style="whiteSpace=wrap;html=1;" vertex="1" parent="1">
          <mxGeometry x="2560" y="580" width="120" height="60" as="geometry" />
        </mxCell>
        <mxCell id="GYugjzRYb0nLsBSvSAXp-34" value="" style="edgeStyle=orthogonalEdgeStyle;rounded=0;orthogonalLoop=1;jettySize=auto;html=1;entryX=0;entryY=0.5;entryDx=0;entryDy=0;" edge="1" parent="1" source="GYugjzRYb0nLsBSvSAXp-24" target="GYugjzRYb0nLsBSvSAXp-26">
          <mxGeometry relative="1" as="geometry">
            <mxPoint x="2300" y="610" as="sourcePoint" />
            <mxPoint x="2350" y="610" as="targetPoint" />
            <Array as="points" />
          </mxGeometry>
        </mxCell>
        <mxCell id="GYugjzRYb0nLsBSvSAXp-35" value="Não" style="text;html=1;align=center;verticalAlign=middle;whiteSpace=wrap;rounded=0;" vertex="1" parent="1">
          <mxGeometry x="2280" y="570" width="60" height="30" as="geometry" />
        </mxCell>
        <mxCell id="GYugjzRYb0nLsBSvSAXp-36" value="Sim" style="text;html=1;align=center;verticalAlign=middle;whiteSpace=wrap;rounded=0;" vertex="1" parent="1">
          <mxGeometry x="2250" y="680" width="60" height="30" as="geometry" />
        </mxCell>
        <mxCell id="GYugjzRYb0nLsBSvSAXp-37" value="Fim" style="ellipse;whiteSpace=wrap;html=1;" vertex="1" parent="1">
          <mxGeometry x="2220" y="870" width="80" height="60" as="geometry" />
        </mxCell>
        <mxCell id="GYugjzRYb0nLsBSvSAXp-41" value="" style="edgeStyle=orthogonalEdgeStyle;rounded=0;orthogonalLoop=1;jettySize=auto;html=1;" edge="1" parent="1" source="GYugjzRYb0nLsBSvSAXp-39" target="GYugjzRYb0nLsBSvSAXp-40">
          <mxGeometry relative="1" as="geometry" />
        </mxCell>
        <mxCell id="GYugjzRYb0nLsBSvSAXp-39" value="Inicio" style="ellipse;whiteSpace=wrap;html=1;" vertex="1" parent="1">
          <mxGeometry x="3250" y="10" width="120" height="80" as="geometry" />
        </mxCell>
        <mxCell id="GYugjzRYb0nLsBSvSAXp-43" value="" style="edgeStyle=orthogonalEdgeStyle;rounded=0;orthogonalLoop=1;jettySize=auto;html=1;" edge="1" parent="1" source="GYugjzRYb0nLsBSvSAXp-40" target="GYugjzRYb0nLsBSvSAXp-42">
          <mxGeometry relative="1" as="geometry" />
        </mxCell>
        <mxCell id="GYugjzRYb0nLsBSvSAXp-40" value="Verificar pedido do produto" style="whiteSpace=wrap;html=1;" vertex="1" parent="1">
          <mxGeometry x="3250" y="180" width="120" height="60" as="geometry" />
        </mxCell>
        <mxCell id="GYugjzRYb0nLsBSvSAXp-45" value="" style="edgeStyle=orthogonalEdgeStyle;rounded=0;orthogonalLoop=1;jettySize=auto;html=1;" edge="1" parent="1" source="GYugjzRYb0nLsBSvSAXp-42" target="GYugjzRYb0nLsBSvSAXp-44">
          <mxGeometry relative="1" as="geometry" />
        </mxCell>
        <mxCell id="GYugjzRYb0nLsBSvSAXp-42" value="Localizar no GPS a entrega do cliente" style="whiteSpace=wrap;html=1;" vertex="1" parent="1">
          <mxGeometry x="3250" y="320" width="120" height="60" as="geometry" />
        </mxCell>
        <mxCell id="GYugjzRYb0nLsBSvSAXp-44" value="Endereço localizado?" style="rhombus;whiteSpace=wrap;html=1;" vertex="1" parent="1">
          <mxGeometry x="3470" y="310" width="80" height="80" as="geometry" />
        </mxCell>
        <mxCell id="GYugjzRYb0nLsBSvSAXp-50" value="" style="edgeStyle=orthogonalEdgeStyle;rounded=0;orthogonalLoop=1;jettySize=auto;html=1;" edge="1" parent="1" source="GYugjzRYb0nLsBSvSAXp-48" target="GYugjzRYb0nLsBSvSAXp-49">
          <mxGeometry relative="1" as="geometry" />
        </mxCell>
        <mxCell id="GYugjzRYb0nLsBSvSAXp-48" value="Entrar em contato com cliente" style="rounded=0;whiteSpace=wrap;html=1;" vertex="1" parent="1">
          <mxGeometry x="3580" y="270" width="90" height="50" as="geometry" />
        </mxCell>
        <mxCell id="GYugjzRYb0nLsBSvSAXp-59" value="" style="edgeStyle=orthogonalEdgeStyle;rounded=0;orthogonalLoop=1;jettySize=auto;html=1;exitX=0.5;exitY=1;exitDx=0;exitDy=0;" edge="1" parent="1">
          <mxGeometry relative="1" as="geometry">
            <mxPoint x="3777.5" y="282.5" as="sourcePoint" />
            <mxPoint x="3630" y="380" as="targetPoint" />
            <Array as="points">
              <mxPoint x="3780" y="283" />
              <mxPoint x="3780" y="345" />
              <mxPoint x="3630" y="345" />
            </Array>
          </mxGeometry>
        </mxCell>
        <mxCell id="GYugjzRYb0nLsBSvSAXp-49" value="Verificar endereço correto" style="whiteSpace=wrap;html=1;rounded=0;" vertex="1" parent="1">
          <mxGeometry x="3740" y="267.5" width="95" height="55" as="geometry" />
        </mxCell>
        <mxCell id="GYugjzRYb0nLsBSvSAXp-64" value="" style="edgeStyle=orthogonalEdgeStyle;rounded=0;orthogonalLoop=1;jettySize=auto;html=1;" edge="1" parent="1" source="GYugjzRYb0nLsBSvSAXp-51" target="GYugjzRYb0nLsBSvSAXp-63">
          <mxGeometry relative="1" as="geometry" />
        </mxCell>
        <mxCell id="GYugjzRYb0nLsBSvSAXp-51" value="Proceguir com despache do pedido" style="rounded=0;whiteSpace=wrap;html=1;" vertex="1" parent="1">
          <mxGeometry x="3580" y="380" width="90" height="40" as="geometry" />
        </mxCell>
        <mxCell id="GYugjzRYb0nLsBSvSAXp-52" value="" style="endArrow=classic;html=1;rounded=0;" edge="1" parent="1" source="GYugjzRYb0nLsBSvSAXp-44">
          <mxGeometry width="50" height="50" relative="1" as="geometry">
            <mxPoint x="3540" y="370" as="sourcePoint" />
            <mxPoint x="3580" y="405" as="targetPoint" />
            <Array as="points">
              <mxPoint x="3570" y="400" />
            </Array>
          </mxGeometry>
        </mxCell>
        <mxCell id="GYugjzRYb0nLsBSvSAXp-53" value="" style="endArrow=classic;html=1;rounded=0;" edge="1" parent="1" source="GYugjzRYb0nLsBSvSAXp-44">
          <mxGeometry width="50" height="50" relative="1" as="geometry">
            <mxPoint x="3550" y="320" as="sourcePoint" />
            <mxPoint x="3580" y="285" as="targetPoint" />
          </mxGeometry>
        </mxCell>
        <mxCell id="GYugjzRYb0nLsBSvSAXp-54" value="Sim" style="text;html=1;align=center;verticalAlign=middle;whiteSpace=wrap;rounded=0;" vertex="1" parent="1">
          <mxGeometry x="3510" y="385" width="50" height="15" as="geometry" />
        </mxCell>
        <mxCell id="GYugjzRYb0nLsBSvSAXp-55" value="não" style="text;html=1;align=center;verticalAlign=middle;whiteSpace=wrap;rounded=0;" vertex="1" parent="1">
          <mxGeometry x="3510" y="285" width="60" height="30" as="geometry" />
        </mxCell>
        <mxCell id="GYugjzRYb0nLsBSvSAXp-62" value="Despache" style="text;html=1;align=center;verticalAlign=middle;whiteSpace=wrap;rounded=0;" vertex="1" parent="1">
          <mxGeometry x="3270" y="-90" width="200" height="70" as="geometry" />
        </mxCell>
        <mxCell id="GYugjzRYb0nLsBSvSAXp-66" value="" style="edgeStyle=orthogonalEdgeStyle;rounded=0;orthogonalLoop=1;jettySize=auto;html=1;" edge="1" parent="1" source="GYugjzRYb0nLsBSvSAXp-63" target="GYugjzRYb0nLsBSvSAXp-65">
          <mxGeometry relative="1" as="geometry" />
        </mxCell>
        <mxCell id="GYugjzRYb0nLsBSvSAXp-63" value="Chegar ao endereço" style="whiteSpace=wrap;html=1;rounded=0;" vertex="1" parent="1">
          <mxGeometry x="3740" y="377.5" width="100" height="45" as="geometry" />
        </mxCell>
        <mxCell id="GYugjzRYb0nLsBSvSAXp-65" value="Cliente estava no endreço de entrega?" style="rhombus;whiteSpace=wrap;html=1;rounded=0;" vertex="1" parent="1">
          <mxGeometry x="3738.75" y="477.5" width="102.5" height="85" as="geometry" />
        </mxCell>
        <mxCell id="GYugjzRYb0nLsBSvSAXp-67" value="" style="endArrow=classic;html=1;rounded=0;" edge="1" parent="1" source="GYugjzRYb0nLsBSvSAXp-65">
          <mxGeometry width="50" height="50" relative="1" as="geometry">
            <mxPoint x="3750" y="550" as="sourcePoint" />
            <mxPoint x="3690" y="570" as="targetPoint" />
            <Array as="points" />
          </mxGeometry>
        </mxCell>
        <mxCell id="GYugjzRYb0nLsBSvSAXp-70" value="" style="edgeStyle=orthogonalEdgeStyle;rounded=0;orthogonalLoop=1;jettySize=auto;html=1;" edge="1" parent="1" source="GYugjzRYb0nLsBSvSAXp-68" target="GYugjzRYb0nLsBSvSAXp-69">
          <mxGeometry relative="1" as="geometry" />
        </mxCell>
        <mxCell id="GYugjzRYb0nLsBSvSAXp-68" value="Entrar em contato com cliente" style="rounded=0;whiteSpace=wrap;html=1;" vertex="1" parent="1">
          <mxGeometry x="3590" y="460" width="90" height="40" as="geometry" />
        </mxCell>
        <mxCell id="GYugjzRYb0nLsBSvSAXp-69" value="Solucionar problema" style="whiteSpace=wrap;html=1;rounded=0;" vertex="1" parent="1">
          <mxGeometry x="3430" y="455" width="100" height="50" as="geometry" />
        </mxCell>
        <mxCell id="GYugjzRYb0nLsBSvSAXp-73" value="" style="edgeStyle=orthogonalEdgeStyle;rounded=0;orthogonalLoop=1;jettySize=auto;html=1;" edge="1" parent="1" source="GYugjzRYb0nLsBSvSAXp-71" target="GYugjzRYb0nLsBSvSAXp-72">
          <mxGeometry relative="1" as="geometry" />
        </mxCell>
        <mxCell id="GYugjzRYb0nLsBSvSAXp-71" value="Pegar os dados do cliente" style="rounded=0;whiteSpace=wrap;html=1;" vertex="1" parent="1">
          <mxGeometry x="3570" y="560" width="100" height="50" as="geometry" />
        </mxCell>
        <mxCell id="GYugjzRYb0nLsBSvSAXp-72" value="Despachar produto" style="whiteSpace=wrap;html=1;rounded=0;" vertex="1" parent="1">
          <mxGeometry x="3410" y="557.5" width="100" height="55" as="geometry" />
        </mxCell>
        <mxCell id="GYugjzRYb0nLsBSvSAXp-74" value="" style="endArrow=classic;html=1;rounded=0;entryX=0.6;entryY=0.045;entryDx=0;entryDy=0;entryPerimeter=0;" edge="1" parent="1" target="GYugjzRYb0nLsBSvSAXp-72">
          <mxGeometry width="50" height="50" relative="1" as="geometry">
            <mxPoint x="3470" y="510" as="sourcePoint" />
            <mxPoint x="3470" y="550" as="targetPoint" />
            <Array as="points">
              <mxPoint x="3470" y="530" />
            </Array>
          </mxGeometry>
        </mxCell>
      </root>
    </mxGraphModel>
  </diagram>
</mxfile>
